<svg xmlns="http://www.w3.org/2000/svg" xmlns:xlink="http://www.w3.org/1999/xlink" version="1.1" width="1000" height="1000" viewBox="0 0 1000 1000" xml:space="preserve">
<desc>Created with Fabric.js 3.5.0</desc>
<defs>
</defs>
<rect x="0" y="0" width="100%" height="100%" fill="rgba(0,0,0,0.94)"/>
<g transform="matrix(0.9766 0 0 0.9766 500.0192 500.0192)" id="689317">
<g style="" vector-effect="non-scaling-stroke">
		<g transform="matrix(1 0 0 1 -4.1876 -148.1516)">
<path style="stroke: none; stroke-width: 1; stroke-dasharray: none; stroke-linecap: butt; stroke-dashoffset: 0; stroke-linejoin: miter; stroke-miterlimit: 4; is-custom-font: none; font-file-url: none; fill: rgb(255,255,255); fill-rule: nonzero; opacity: 1;" transform=" translate(-173.8125, -295.8485)" d="M 0 0 C 1.53921454 0.8914479 3.05481624 1.82466022 4.546875 2.79296875 C 5.3925 3.34146484 6.238125 3.88996094 7.109375 4.45507812 C 8.41648437 5.31262695 8.41648437 5.31262695 9.75 6.1875 C 10.6059375 6.73986328 11.461875 7.29222656 12.34375 7.86132812 C 19.91195603 12.79786251 26.93986874 18.29367152 33.9375 24 C 37.19142527 26.61619609 40.49342533 29.07787289 43.9375 31.4375 C 48.60502847 34.64916927 52.9551944 38.16248396 57.30859375 41.78515625 C 60.57948218 44.4768743 63.93618715 47.04271737 67.3203125 49.58984375 C 69 51 69 51 70 53 C 70.7425 53.268125 71.485 53.53625 72.25 53.8125 C 75.66898164 55.28887843 77.35969226 57.35969226 80 60 C 82.62707451 61.87532703 85.29246093 63.67430639 87.98828125 65.44921875 C 88.65214844 65.96097656 89.31601562 66.47273438 90 67 C 90 67.66 90 68.32 90 69 C 91.07314453 69.36738281 91.07314453 69.36738281 92.16796875 69.7421875 C 95.34583121 71.15359676 97.63646999 72.91281519 100.3125 75.125 C 101.19550781 75.84945312 102.07851563 76.57390625 102.98828125 77.3203125 C 103.65214844 77.87460938 104.31601562 78.42890625 105 79 C 108.40403042 75.69608813 111.52334553 72.26153653 114.58203125 68.63671875 C 116.29437341 66.66021361 118.1515727 64.8484273 120 63 C 120.99 61.515 120.99 61.515 122 60 C 122.66 60 123.32 60 124 60 C 124.3403125 59.195625 124.3403125 59.195625 124.6875 58.375 C 126.45570089 55.17539839 128.53670203 52.70962777 131 50 C 131.66 50 132.32 50 133 50 C 133.27078369 49.40703125 133.54156738 48.8140625 133.82055664 48.203125 C 134.98563092 46.02684052 136.17522906 44.52983443 137.87109375 42.75 C 138.44045654 42.14712158 139.00981934 41.54424316 139.59643555 40.9230957 C 140.50776245 39.97116333 140.50776245 39.97116333 141.4375 39 C 142.70353475 37.66054342 143.96915427 36.32069426 145.234375 34.98046875 C 145.86666016 34.31321777 146.49894531 33.6459668 147.15039062 32.95849609 C 149.85236851 30.09745246 152.5248153 27.21008707 155.1875 24.3125 C 156.47720703 22.91451172 156.47720703 22.91451172 157.79296875 21.48828125 C 159.97697404 19.1184218 159.97697404 19.1184218 161.546875 16.80859375 C 163.80308807 14.00045759 166.07932708 13.02888078 169.5 12.05859375 C 173.82439569 11.95724073 175.97316317 14.27824138 179.0703125 17.0859375 C 180.05186418 18.05224984 181.02788222 19.02419763 182 20 C 182.60295898 20.59973633 183.20591797 21.19947266 183.82714844 21.81738281 C 186.57395982 24.5560555 189.3127826 27.30200534 192.03198242 30.06811523 C 195.82892416 33.91352284 199.64640196 37.5101156 203.875 40.875 C 218.09279864 52.24059588 218.09279864 52.24059588 219.75 57.28125 C 219.75 61.29063108 218.48478619 63.42624556 215.9140625 66.46875 C 214.18700671 68.19049177 212.42182865 69.87464303 210.625 71.5234375 C 208.23978934 73.77377018 206.32397964 75.99929132 204.375 78.625 C 202.11597321 81.64585315 199.77176059 84.31241061 197.0625 86.9375 C 194.23099066 89.68795469 191.73342942 92.50729048 189.3125 95.625 C 185.89582251 100.015938 182.20172335 104.03402946 178.375 108.0625 C 173.65621141 113.04426766 169.45680835 118.03345408 166 124 C 166.75023437 124.54527344 167.50046875 125.09054688 168.2734375 125.65234375 C 173.40353893 129.43207843 178.33806211 133.20427142 183 137.5625 C 187.55102122 141.78738941 192.4645281 145.09060631 197.7265625 148.37109375 C 198.47679687 148.90863281 199.22703125 149.44617188 200 150 C 200 150.66 200 151.32 200 152 C 200.804375 152.33837891 200.804375 152.33837891 201.625 152.68359375 C 204.76030045 154.42141653 207.31752929 156.71293735 210 159.0625 C 214.22631896 162.70686533 218.50074739 166.19137408 223 169.5 C 227.98540862 173.17311191 232.70730649 177.06871814 237.3972168 181.10522461 C 241.04003081 184.22962319 244.76679252 187.14104965 248.70703125 189.87890625 C 249.13371094 190.24886719 249.56039063 190.61882812 250 191 C 250 191.66 250 192.32 250 193 C 252.33214148 194.20628008 254.49642139 195.1654738 257 196 C 258.68358582 197.64957399 260.3478463 199.31894565 262 201 C 263.93088769 202.57590555 265.89146396 204.11589751 267.875 205.625 C 268.42728271 206.04740967 268.97956543 206.46981934 269.54858398 206.9050293 C 272.68116551 209.28861961 275.84660433 211.6206535 279.04296875 213.91796875 C 279.71279785 214.40120605 280.38262695 214.88444336 281.07275391 215.38232422 C 282.36852113 216.31368672 283.66878485 217.23883517 284.97412109 218.15673828 C 288.56849274 220.73743704 291.6897286 223.14570682 294 227 C 294.62230719 231.16574289 294.62077621 233.1243093 292.1640625 236.58984375 C 291.32617188 237.36457031 290.48828125 238.13929688 289.625 238.9375 C 288.71105469 239.78957031 287.79710937 240.64164063 286.85546875 241.51953125 C 283.46681175 244.46316626 280.01407615 247.29163142 276.46484375 250.0390625 C 273.10221051 252.71424774 269.96018357 255.60840097 266.8125 258.53125 C 265 260 265 260 263 260 C 263 260.66 263 261.32 263 262 C 261.3046875 263.5234375 261.3046875 263.5234375 258.875 265.375 C 254.49857871 268.78576114 250.25747465 272.3090105 246.0625 275.9375 C 240.95955616 280.34298863 235.78805342 284.64570603 230.546875 288.88671875 C 227.18993372 291.67215622 223.97483988 294.60019374 220.77734375 297.56640625 C 219 299 219 299 217 299 C 217 299.66 217 300.32 217 301 C 215.53309441 302.3327188 213.99677499 303.58913869 212.4375 304.8125 C 207.68470312 308.61596245 203.03215984 312.50686945 198.4375 316.5 C 197.80247559 317.05171875 197.16745117 317.6034375 196.51318359 318.171875 C 191.28993377 322.72389082 186.12288495 327.33516123 181 332 C 184.13276787 340.49667774 189.66030455 347.84338294 195.32421875 354.83203125 C 197.35969172 357.46533544 199.15476564 360.23040438 201 363 C 202.44531361 364.94723161 203.90394379 366.88464212 205.375 368.8125 C 209.74901248 374.61359649 213.77550828 380.56490054 217.72265625 386.66015625 C 222.99940573 394.71072066 228.69997188 402.38494385 234.51904297 410.04858398 C 236.08324768 412.10969315 237.64534959 414.17230728 239.203125 416.23828125 C 239.6765332 416.86516846 240.14994141 417.49205566 240.63769531 418.13793945 C 242.02632747 420.0359856 243.33457556 421.97162703 244.625 423.9375 C 247.69981284 428.60696312 250.9049722 433.18012334 254.125 437.75 C 254.6401416 438.483396 255.1552832 439.21679199 255.68603516 439.97241211 C 257.81457545 442.98618002 259.95448756 445.9431684 262.26171875 448.82421875 C 264.0295863 451.03703274 265.29795578 453.34964984 266.65234375 455.828125 C 269.18305854 459.90661029 272.22731979 463.64060302 275.171875 467.42578125 C 277 470 277 470 277 472 C 277.66 472 278.32 472 279 472 C 280.41015625 473.73046875 280.41015625 473.73046875 282.0625 476.1875 C 282.68125 477.09886719 283.3 478.01023437 283.9375 478.94921875 C 284.618125 479.95597656 285.29875 480.96273438 286 482 C 287.13403717 483.61639673 288.26810929 485.23277035 289.40429688 486.84765625 C 301 503.39059865 301 503.39059865 301 507 C 301.66 507 302.32 507 303 507 C 304.4453125 509.0546875 304.4453125 509.0546875 306.125 511.875 C 308.51642111 515.74870692 310.98364705 519.35911482 313.875 522.875 C 320.31810198 530.7345816 326.10761021 539.08886146 331 548 C 336.53939778 557.70485044 343.75421153 566.3558308 350.9375 574.875 C 358 583.4625 358 583.4625 358 589.3125 C 356.49605741 591.85040312 354.78013107 592.1150539 352 593 C 348.85324097 593.24723816 348.85324097 593.24723816 345.27294922 593.24291992 C 344.61689194 593.24481827 343.96083466 593.24671661 343.28489685 593.24867249 C 341.12470379 593.25236407 338.96485052 593.24169183 336.8046875 593.23046875 C 335.29118896 593.22927496 333.77768967 593.22882421 332.26419067 593.2290802 C 329.09176999 593.22751764 325.9194625 593.21925089 322.74707031 593.20581055 C 318.70929318 593.18890846 314.67164129 593.18499402 310.63383293 593.18575573 C 307.50571529 593.18548167 304.37762424 593.17996148 301.24951553 593.17275429 C 299.76258673 593.169602 298.27565495 593.16760839 296.78872299 593.16686058 C 273.53766396 593.14238292 273.53766396 593.14238292 269.09765625 589.84375 C 264.55415574 583.68421858 264.55415574 583.68421858 262.4375 580.5 C 260.34920954 577.39100798 258.26231083 574.32555961 255.91015625 571.40625 C 254.0201359 569.02536547 252.55616867 566.60875964 251 564 C 249.14158445 561.28590048 247.22501849 558.61365104 245.3125 555.9375 C 240.95208877 549.80953308 236.70983992 543.6336883 232.62109375 537.3203125 C 231.14868359 535.05876527 231.14868359 535.05876527 229.58203125 533.6171875 C 227.06496947 531.04419101 225.21677931 527.99866693 223.25 525 C 222.80462891 524.32791504 222.35925781 523.65583008 221.90039062 522.96337891 C 219.37281548 519.13645507 216.9153112 515.27400236 214.5 511.375 C 211.59612295 506.76814833 208.34984144 502.49100253 204.99462891 498.21118164 C 201.46825841 493.68216301 198.14029879 489.03275567 194.875 484.3125 C 194.14651855 483.26896362 194.14651855 483.26896362 193.40332031 482.2043457 C 190 477.24291586 190 477.24291586 190 475 C 189.34 475 188.68 475 188 475 C 186.64648438 473.31030273 186.64648438 473.31030273 185.09375 470.93359375 C 184.51955322 470.06259033 183.94535645 469.19158691 183.35375977 468.29418945 C 182.74201904 467.35148193 182.13027832 466.40877441 181.5 465.4375 C 180.872146 464.48254639 180.24429199 463.52759277 179.59741211 462.54370117 C 178.32388948 460.60669258 177.05296279 458.66797469 175.78466797 456.72753906 C 165.52184369 440.87382473 165.52184369 440.87382473 154.3828125 425.640625 C 153.92712891 425.05812988 153.47144531 424.47563477 153.00195312 423.87548828 C 152.10349964 422.7333054 151.19880851 421.5959937 150.28710938 420.46435547 C 148.126854 417.72684876 146.45809575 415.51206743 146 412 C 145.34 412 144.68 412 144 412 C 142.69067383 410.41455078 142.69067383 410.41455078 141.20703125 408.1953125 C 140.66216064 407.38835937 140.11729004 406.58140625 139.5559082 405.75 C 138.9805835 404.88375 138.40525879 404.0175 137.8125 403.125 C 136.63578833 401.37735386 135.45870818 399.62995577 134.28125 397.8828125 C 133.71535156 397.03879883 133.14945313 396.19478516 132.56640625 395.32519531 C 130.18237226 391.78630196 127.7289798 388.29931313 125.26953125 384.8125 C 124.1569229 383.22403761 123.07576235 381.61364353 122 380 C 118.32043709 381.56232021 115.83484207 383.83584082 112.9375 386.5625 C 108.41865533 390.75927373 103.75476366 394.70403581 98.95703125 398.58203125 C 91.46693612 404.70669292 84.15199387 411.0537717 76.9375 417.5 C 68.53125 425 68.53125 425 66 425 C 64.48823586 430.34461326 63.78679957 434.75161691 64.0234375 440.3515625 C 64.07560744 441.82625019 64.12768558 443.30094114 64.1796875 444.77563477 C 64.22754395 445.95284592 64.22754395 445.95284592 64.27636719 447.15383911 C 65.01294346 465.60812853 65.06035831 484.05503792 65.00567627 502.52051544 C 64.52469499 541.67736055 64.52469499 541.67736055 67.59765625 580.6640625 C 67.94142433 583.51433373 68.24258503 586.14059345 68 589 C 63.91340443 593.08659557 58.62192313 593.12921013 53.11328125 593.23046875 C 50.8463107 593.22762877 48.57933194 593.21272933 46.3125 593.1875 C 45.11512207 593.18177979 43.91774414 593.17605957 42.68408203 593.17016602 C 34.76055028 593.10615564 26.87803876 592.78972132 18.97192383 592.28369141 C 12.72221687 591.92471394 6.60576386 592.16268602 0.37646484 592.76928711 C -3.32313836 593.09248665 -5.91835501 593.22815018 -9 591 C -11.07491061 586.85017878 -10.18494797 581.4329257 -10.1875 576.875 C -10.19974609 575.77800781 -10.21199219 574.68101562 -10.22460938 573.55078125 C -10.2365803 566.66351161 -9.70797749 559.9785175 -8.78352356 553.16365051 C -7.75712865 545.4840407 -7.27843889 537.79674638 -6.875 530.0625 C -6.83230988 529.27672577 -6.78961975 528.49095154 -6.74563599 527.68136597 C -5.84832512 510.72923858 -5.84739641 493.78608588 -5.98583984 476.81469727 C -6.00039741 474.82568875 -6.01424936 472.83667493 -6.02734375 470.84765625 C -6.03374878 469.89339249 -6.04015381 468.93912872 -6.04675293 467.95594788 C -6.06405873 461.46850805 -5.70043097 455.10636234 -5.17254734 448.64036715 C -5.00761459 445.16065104 -5.15815204 441.90080764 -5.46531677 438.43430138 C -6.02032087 431.31445002 -6.13473948 424.25629109 -6.11352539 417.11758423 C -6.1132445 415.77949792 -6.11341006 414.44141146 -6.11397648 413.10332525 C -6.11426882 409.46840749 -6.10838356 405.83352324 -6.10140657 402.19861317 C -6.09497954 398.26092536 -6.09445917 394.32323607 -6.0932312 390.38554382 C -6.09035483 383.56995745 -6.08393146 376.75438204 -6.07516479 369.93880081 C -6.06254164 360.05000394 -6.05651748 350.16121106 -6.05223143 340.27240746 C -6.04517376 324.17899763 -6.03438436 308.08559284 -6.02050781 291.9921875 C -6.01926609 290.54975739 -6.01926609 290.54975739 -6.01799929 289.07818727 C -6.01126383 281.28755863 -6.00434585 273.49693015 -5.99739647 265.70630169 C -5.99134828 258.92236526 -5.98536548 252.13842877 -5.97949219 245.35449219 C -5.97866406 244.39951566 -5.97783593 243.44453914 -5.97698271 242.46062393 C -5.96321954 226.44549194 -5.95350073 210.43035986 -5.94658184 194.41522348 C -5.94213922 184.57353108 -5.9341807 174.73185411 -5.92143703 164.89016889 C -5.91290618 158.12055897 -5.9080968 151.35095253 -5.90601182 144.58133759 C -5.90468835 140.69685596 -5.90182567 136.81239428 -5.89425278 132.92791939 C -5.8602574 114.87637812 -6.13113523 96.86871369 -6.78086853 78.82805443 C -7.03145353 71.66071101 -7.05853419 64.50723422 -7.01269531 57.33691406 C -6.97381192 50.16476928 -7.14205876 42.99528784 -7.31738281 35.82568359 C -7.3562131 34.17408007 -7.39095865 32.52237608 -7.421875 30.87060547 C -7.58124798 22.37237311 -7.76213356 14.25664433 -10 6 C -10.125 2.4375 -10.125 2.4375 -10 0 C -5.80359871 -2.15814924 -4.20120188 -1.97988127 0 0 Z M 65 130 C 64.70602715 140.44690638 64.42443344 150.89409924 64.14949036 161.34152222 C 64.05558822 164.9090535 63.9601084 168.47653486 63.86283875 172.04397583 C 63.12072032 199.4540467 62.83954345 226.84708723 62.86962891 254.2668457 C 62.87535893 259.53652458 62.87191677 264.80615324 62.86617661 270.07583046 C 62.84358636 294.73477619 63.094479 319.35662912 64 344 C 68.03693874 342.48735131 70.54691861 340.85465903 73.6875 337.875 C 77.03298185 334.77237535 80.4096012 331.81577733 84 329 C 88.35413557 325.57256621 92.44255179 321.92138283 96.52734375 318.1796875 C 99.67890042 315.40153802 102.99392615 312.8902582 106.3828125 310.41015625 C 106.91648437 309.94480469 107.45015625 309.47945312 108 309 C 108 308.34 108 307.68 108 307 C 108.59039062 306.72929687 109.18078125 306.45859375 109.7890625 306.1796875 C 111.98260331 305.00928233 113.5410619 303.79297085 115.375 302.125 C 119.21872351 298.69156158 123.09352418 295.29922336 127 291.9375 C 127.60521484 291.41575195 128.21042969 290.89400391 128.83398438 290.35644531 C 132.09619768 287.56355151 135.39432771 284.8957004 138.875 282.375 C 140.421875 281.199375 140.421875 281.199375 142 280 C 142 279.34 142 278.68 142 278 C 142.56203125 277.75636719 143.1240625 277.51273438 143.703125 277.26171875 C 146.44019785 275.75819064 148.45795941 273.93300252 150.75 271.8125 C 153.74271743 269.06808664 156.73687703 266.33867394 159.8125 263.6875 C 162.27423927 261.54967379 164.68776563 259.36974012 167.0703125 257.14453125 C 168.19268873 256.09633317 169.31508496 255.04815652 170.4375 254 C 170.99373047 253.48026611 171.54996094 252.96053223 172.12304688 252.42504883 C 176.05928633 248.78125859 180.13498234 245.44656571 184.48828125 242.3046875 C 184.98714844 241.87414062 185.48601562 241.44359375 186 241 C 186 240.34 186 239.68 186 239 C 186.639375 238.773125 187.27875 238.54625 187.9375 238.3125 C 190.18183989 237.15547786 190.18183989 237.15547786 190.96875 234.7578125 C 191.30163533 231.76927748 191.30163533 231.76927748 188.75390625 229.31640625 C 187.70563094 228.38074585 186.64064166 227.46358382 185.5625 226.5625 C 185.00481934 226.07515381 184.44713867 225.58780762 183.87255859 225.08569336 C 180.44839339 222.12432007 176.91991833 219.35096835 173.2421875 216.7109375 C 170.12869662 214.33513784 167.20393671 211.75733349 164.25 209.1875 C 158.87013228 204.51800341 153.37075464 200.14806997 147.62109375 195.9375 C 145.02596445 194.0191928 142.50885121 192.02945289 140 190 C 139.23300781 189.38640625 138.46601563 188.7728125 137.67578125 188.140625 C 125 178 125 178 122.48828125 175.98828125 C 120.86373491 174.69017436 119.23625301 173.39573036 117.60546875 172.10546875 C 112.91274148 168.38312774 108.30497719 164.57684428 103.75 160.6875 C 98.57617928 156.27050455 93.28163239 152.03722602 87.90625 147.86865234 C 83.94040012 144.78073011 80.13890368 141.56589538 76.453125 138.14453125 C 75.04642771 136.79374874 75.04642771 136.79374874 73 137 C 73 136.34 73 135.68 73 135 C 69.52001493 131.36366461 69.52001493 131.36366461 65 130 Z" stroke-linecap="round"/>
</g>
		<g transform="matrix(1 0 0 1 -260 297.4147)">
<path style="stroke: none; stroke-width: 1; stroke-dasharray: none; stroke-linecap: butt; stroke-dashoffset: 0; stroke-linejoin: miter; stroke-miterlimit: 4; is-custom-font: none; font-file-url: none; fill: rgb(255,255,255); fill-rule: nonzero; opacity: 1;" transform=" translate(-64.5569, -93.5758)" d="M 0 0 C 0.662276 -0.0049649 1.324552 -0.00992981 2.00689697 -0.01504517 C 4.20976805 -0.0297031 6.41256655 -0.03648322 8.61547852 -0.04199219 C 9.75212291 -0.04623325 9.75212291 -0.04623325 10.91172981 -0.05056 C 14.94066849 -0.06558589 18.96957121 -0.07478717 22.99853516 -0.07910156 C 26.29878007 -0.08345056 29.59875829 -0.09719592 32.89892578 -0.12011719 C 89.92847897 -0.50856122 89.92847897 -0.50856122 110.36938477 17.66113281 C 111.45219727 18.89863281 111.45219727 18.89863281 112.55688477 20.16113281 C 113.02352539 20.63679687 113.49016602 21.11246094 113.97094727 21.60253906 C 124.35413321 32.65131384 127.01365397 45.91924711 126.74047852 60.60644531 C 126.02391115 74.48040913 122.84357482 84.53563334 113.22485352 94.76660156 C 106.8425801 100.49476203 99.2163056 104.40606443 91.55688477 108.16113281 C 92.90863818 111.73574289 94.49919161 115.00686344 96.38500977 118.32910156 C 96.93801758 119.30556641 97.49102539 120.28203125 98.06079102 121.28808594 C 98.63700195 122.29806641 99.21321289 123.30804687 99.80688477 124.34863281 C 100.64799805 125.83459961 100.64799805 125.83459961 101.50610352 127.35058594 C 106.96108135 136.95663814 112.64807956 146.41360673 118.49438477 155.78613281 C 118.98100586 156.58019531 119.46762695 157.37425781 119.96899414 158.19238281 C 125.10907413 166.41112147 131.05767445 173.03932847 138.55688477 179.16113281 C 137.80688477 183.91113281 137.80688477 183.91113281 135.55688477 186.16113281 C 121.46955101 188.56062373 103.40743745 187.55603227 90.30688477 181.47363281 C 89.68297852 181.20164062 89.05907227 180.92964844 88.41625977 180.64941406 C 85.56721427 178.36898059 84.21753911 175.34137301 82.55688477 172.16113281 C 81.42704307 170.06718494 80.29679309 167.97345735 79.16625977 165.87988281 C 77.87736863 163.47493147 76.59219187 161.06800107 75.30688477 158.66113281 C 74.62994205 157.3948251 73.95293981 156.12854921 73.27587891 154.86230469 C 71.95580004 152.39316979 70.63629979 149.92372688 69.31713867 147.45410156 C 67.88314127 144.7714723 66.44619837 142.09049092 65.00610352 139.41113281 C 61.46776414 132.8191918 58.03849373 126.19150221 54.78344727 119.45410156 C 53.64099487 117.05192431 53.64099487 117.05192431 51.55688477 115.16113281 C 49.34615499 114.91859468 49.34615499 114.91859468 46.93188477 115.03613281 C 46.11461914 115.05417969 45.29735352 115.07222656 44.45532227 115.09082031 C 43.82883789 115.11402344 43.20235352 115.13722656 42.55688477 115.16113281 C 41.82889189 127.48253601 41.37320375 139.75764289 41.80688477 152.09863281 C 41.84640259 153.56042969 41.84640259 153.56042969 41.88671875 155.05175781 C 42.23154588 162.95068905 43.42296901 170.37099044 48.80688477 176.47363281 C 50.44750977 178.33691406 50.44750977 178.33691406 51.55688477 180.16113281 C 51.41625977 182.26660156 51.41625977 182.26660156 50.55688477 184.16113281 C 46.862143 186.62429399 44.1110123 186.39979963 39.84594727 186.32128906 C 38.69997574 186.31348671 38.69997574 186.31348671 37.53085327 186.30552673 C 35.08100381 186.28772183 32.63157286 186.25664553 30.18188477 186.22363281 C 26.9866026 186.18668756 23.79135827 186.1569896 20.59594727 186.13378906 C 19.81874329 186.12674957 19.04153931 186.11971008 18.24078369 186.11245728 C 12.55607229 186.08923013 6.98033665 186.45584969 1.33178711 187.13549805 C -1.98928153 187.16617834 -4.38648947 186.42955972 -7.44311523 185.16113281 C -8.10311523 184.50113281 -8.76311523 183.84113281 -9.44311523 183.16113281 C -9.44311523 178.44584701 -6.61736496 175.44991311 -3.81811523 171.93066406 C 4.16344549 161.65893961 -0.27858337 135.06353249 -0.27514648 122.72753906 C -0.27371906 121.37403787 -0.27212227 120.02053685 -0.27036095 118.66703606 C -0.26117199 111.59450739 -0.25701894 104.52199733 -0.2578125 97.44946289 C -0.25841546 90.89241925 -0.24780449 84.33545729 -0.23206884 77.77843434 C -0.21895576 72.10918852 -0.21363 66.43996935 -0.21426791 60.7707085 C -0.21452126 57.40148225 -0.21175915 54.03232927 -0.20108986 50.66311836 C -0.19126003 46.91181779 -0.19417867 43.16072801 -0.20019531 39.40942383 C -0.19457581 38.31259277 -0.1889563 37.21576172 -0.1831665 36.08569336 C -0.22514701 25.75158476 -1.32901244 17.64641008 -7.44311523 9.16113281 C -9.44311523 6.16113281 -9.44311523 6.16113281 -9.19311523 3.53613281 C -8.94561523 2.75238281 -8.69811523 1.96863281 -8.44311523 1.16113281 C -5.59876135 -0.26104413 -3.18041136 0.01810321 0 0 Z M 41.55688477 31.16113281 C 41.3981627 32.53754191 41.30551224 33.9216607 41.24047852 35.30566406 C 41.19834229 36.19713135 41.15620605 37.08859863 41.11279297 38.00708008 C 41.07371826 38.98604248 41.03464355 39.96500488 40.99438477 40.97363281 C 40.95337646 41.98159912 40.91236816 42.98956543 40.87011719 44.02807617 C 40.56175843 52.42526619 40.4183869 60.82114264 40.36938477 69.22363281 C 40.35641357 70.41770752 40.34344238 71.61178223 40.33007812 72.84204102 C 40.32886963 73.96956787 40.32766113 75.09709473 40.32641602 76.25878906 C 40.32230713 77.25402588 40.31819824 78.2492627 40.31396484 79.2746582 C 40.59707989 82.63874789 41.06809692 86.67234496 43.55688477 89.16113281 C 55.24792328 90.12051193 68.15303409 89.11065568 77.52563477 81.57910156 C 83.31880421 75.94025835 84.086085 69.99352887 84.55688477 62.16113281 C 84.6380957 60.88882813 84.71930664 59.61652344 84.80297852 58.30566406 C 85.11317846 48.93386572 84.34801782 42.31332616 77.93188477 35.28613281 C 70.10089239 30.35550799 62.06444209 29.71647028 52.99438477 29.91113281 C 51.99858398 29.91628906 51.0027832 29.92144531 49.97680664 29.92675781 C 45.42751939 29.56249259 45.42751939 29.56249259 41.55688477 31.16113281 Z" stroke-linecap="round"/>
</g>
		<g transform="matrix(1 0 0 1 -100.959 298.4778)">
<path style="stroke: none; stroke-width: 1; stroke-dasharray: none; stroke-linecap: butt; stroke-dashoffset: 0; stroke-linejoin: miter; stroke-miterlimit: 4; is-custom-font: none; font-file-url: none; fill: rgb(255,255,255); fill-rule: nonzero; opacity: 1;" transform=" translate(-73.018, -94.6231)" d="M 0 0 C 1.071362 -0.00637985 2.142724 -0.0127597 3.24655151 -0.01933289 C 4.41316315 -0.02044571 5.57977478 -0.02155853 6.78173828 -0.02270508 C 8.56682297 -0.02769768 8.56682297 -0.02769768 10.38796997 -0.03279114 C 12.91163749 -0.03786588 15.43531176 -0.0401993 17.95898438 -0.04003906 C 21.8284 -0.04222298 25.69752952 -0.06036614 29.56689453 -0.0793457 C 32.01350813 -0.08227997 34.4601231 -0.08426454 36.90673828 -0.08520508 C 38.65058304 -0.09598335 38.65058304 -0.09598335 40.42965698 -0.10697937 C 41.5073233 -0.10390274 42.58498962 -0.10082611 43.6953125 -0.09765625 C 44.64493866 -0.09908127 45.59456482 -0.10050629 46.57296753 -0.10197449 C 48.97705078 0.14526367 48.97705078 0.14526367 51.97705078 2.14526367 C 52.47705078 4.39526367 52.47705078 4.39526367 51.97705078 7.14526367 C 50.75583196 8.56451798 49.53112139 9.98111957 48.27906322 11.37324333 C 43.61023384 17.72745344 43.54303387 26.26188329 43.60473633 33.82055664 C 43.60108566 34.83661987 43.597435 35.85268311 43.59367371 36.89953613 C 43.58562625 40.22901591 43.59913214 43.55799995 43.61376953 46.88745117 C 43.61428891 49.22095743 43.61376819 51.55446414 43.61225891 53.88796997 C 43.61234838 58.76823497 43.6227249 63.64833393 43.64086914 68.52856445 C 43.66352978 74.75769975 43.66410207 80.98659222 43.65735149 87.21575737 C 43.65399579 92.03213628 43.66067212 96.84846071 43.67048073 101.66482925 C 43.67430732 103.96034586 43.67549159 106.25586855 43.67389488 108.55138779 C 42.66284664 130.5694261 42.66284664 130.5694261 50.97705078 150.14526367 C 56.96214054 155.1122221 63.20619786 158.39937028 70.97705078 159.14526367 C 72.16234375 159.26708008 72.16234375 159.26708008 73.37158203 159.39135742 C 80.86754952 159.78091164 88.10375703 158.19368931 94.08642578 153.48510742 C 107.80974904 139.2046407 104.1466439 114.66056843 104.18017578 96.36401367 C 104.18300316 95.30964615 104.18583054 94.25527863 104.18874359 93.16896057 C 104.20359698 87.6083248 104.21291832 82.04771413 104.21728516 76.48706055 C 104.22280504 70.77009752 104.24694609 65.05336839 104.27525711 59.33647919 C 104.2939056 54.90799274 104.29908988 50.47956304 104.30062103 46.05104065 C 104.303634 43.94282223 104.31161632 41.83460448 104.32480621 39.72642517 C 104.34194238 36.78187076 104.33997002 33.83789516 104.33349609 30.89331055 C 104.34271088 30.03600342 104.35192566 29.17869629 104.36141968 28.29541016 C 104.31284634 21.20985093 103.37602576 14.60002876 98.28955078 9.39526367 C 97.52642578 8.65276367 96.76330078 7.91026367 95.97705078 7.14526367 C 95.47705078 4.45776367 95.47705078 4.45776367 95.97705078 2.14526367 C 99.26563558 -0.0471262 100.24272638 -0.10685976 104.05932617 -0.11352539 C 105.61092186 -0.12298187 105.61092186 -0.12298187 107.19386292 -0.13262939 C 108.30954147 -0.12858093 109.42522003 -0.12453247 110.57470703 -0.12036133 C 111.71991318 -0.12227478 112.86511932 -0.12418823 114.04502869 -0.12615967 C 116.46678894 -0.12752127 118.88855649 -0.1238266 121.31030273 -0.11547852 C 125.02816051 -0.10476914 128.74553612 -0.11537998 132.46337891 -0.12817383 C 134.81298935 -0.12685242 137.1625995 -0.12429042 139.51220703 -0.12036133 C 140.62990982 -0.12440979 141.74761261 -0.12845825 142.89918518 -0.13262939 C 144.44605263 -0.12317291 144.44605263 -0.12317291 146.02416992 -0.11352539 C 146.9344545 -0.1119342 147.84473907 -0.11034302 148.78260803 -0.10870361 C 150.97705078 0.14526367 150.97705078 0.14526367 152.97705078 2.14526367 C 152.76483813 7.6627926 151.14755905 10.72576729 147.97705078 15.14526367 C 143.13911902 25.29042158 144.96021847 38.3361712 145.43408203 49.25073242 C 146.06046141 65.80576013 146.00070795 82.32074341 145.73510742 98.8828125 C 145.67333752 102.75141184 145.62692215 106.62003713 145.58427715 110.48888874 C 145.54874129 113.53902199 145.50456509 116.58898566 145.4579258 119.63896751 C 145.43721716 121.06642084 145.41922255 122.49391678 145.40427208 123.92144203 C 145.22785956 139.89250684 143.70891308 155.49597531 132.97705078 168.14526367 C 132.31705078 168.14526367 131.65705078 168.14526367 130.97705078 168.14526367 C 130.61353516 169.03084961 130.61353516 169.03084961 130.24267578 169.93432617 C 125.07007093 178.97041983 110.76521342 183.5405627 101.35595703 186.14916992 C 81.19191036 190.72086506 60.32884472 190.71936889 40.60205078 184.33276367 C 39.49627686 183.97867432 39.49627686 183.97867432 38.36816406 183.61743164 C 25.56634075 179.23079288 13.22943933 169.51650546 7.05517578 157.32495117 C 6.22099146 155.29056288 5.58976196 153.256929 4.97705078 151.14526367 C 4.69861328 150.32670898 4.42017578 149.5081543 4.13330078 148.66479492 C 1.59181768 139.94609594 1.73889189 131.4202298 1.91186523 122.40161133 C 2.00975682 116.99216409 1.97742963 111.64737867 1.62188721 106.24659729 C 0.96936282 96.26920242 0.92442615 86.32216643 0.98486328 76.32885742 C 0.99284361 74.79998787 1.00080859 73.27111824 1.00875854 71.74224854 C 1.04421639 65.41578595 1.08628813 59.08944457 1.1484375 52.76318359 C 1.18630405 48.84444127 1.20916155 44.92584295 1.22274399 41.00694466 C 1.23071598 39.53310113 1.24420507 38.05927533 1.26367569 36.58553886 C 1.39140357 26.77024511 1.43512778 17.41783376 -4.77294922 9.33276367 C -7.02294922 6.14526367 -7.02294922 6.14526367 -6.89794922 3.27026367 C -5.33068898 -0.53593976 -3.954179 0.01589871 0 0 Z" stroke-linecap="round"/>
</g>
		<g transform="matrix(1 0 0 1 76 297.1262)">
<path style="stroke: none; stroke-width: 1; stroke-dasharray: none; stroke-linecap: butt; stroke-dashoffset: 0; stroke-linejoin: miter; stroke-miterlimit: 4; is-custom-font: none; font-file-url: none; fill: rgb(255,255,255); fill-rule: nonzero; opacity: 1;" transform=" translate(-68.9297, -93.2941)" d="M 0 0 C 1.07167923 -0.0049926 1.07167923 -0.0049926 2.16500854 -0.01008606 C 3.68324132 -0.01516124 5.20148531 -0.0174942 6.71972656 -0.01733398 C 9.0242814 -0.01950264 11.32834361 -0.03760156 13.6328125 -0.05664062 C 15.10937337 -0.05957815 16.58593651 -0.06156054 18.0625 -0.0625 C 19.086353 -0.07327827 19.086353 -0.07327827 20.13088989 -0.08427429 C 25.3996837 -0.05959865 30.58564489 0.46569314 34.94140625 3.62890625 C 40.95416622 10.49662743 45.37366844 18.29164184 49.96484375 26.140625 C 52.47504373 30.42938858 55.08975654 34.63143841 57.8046875 38.79296875 C 60.80188071 43.40196191 63.68968394 48.05202525 66.4921875 52.78125 C 67.96871275 55.23276339 69.50358362 57.63801201 71.0546875 60.04296875 C 74.41833111 65.28935978 77.61401677 70.62806993 80.8046875 75.98046875 C 84.92725467 82.89233917 89.15645634 89.70718853 93.55229187 96.44775391 C 96.02069873 100.2764297 98.3666557 104.1734747 100.69921875 108.0859375 C 101.10901978 108.77119507 101.5188208 109.45645264 101.94104004 110.16247559 C 102.93828007 111.83036135 103.93413107 113.4990775 104.9296875 115.16796875 C 104.99928186 102.78932525 105.0525468 90.41072851 105.08512402 78.03192902 C 105.10076159 72.28358536 105.12196523 66.53537584 105.15600586 60.78710938 C 105.18866703 55.23687934 105.20655487 49.6867781 105.21431923 44.13645935 C 105.21985058 42.02182488 105.23065195 39.90719725 105.24687767 37.7926178 C 105.26874153 34.82448238 105.27165065 31.85687522 105.27026367 28.88867188 C 105.2810495 28.01976318 105.29183533 27.15085449 105.302948 26.25561523 C 105.26721862 19.16209048 103.78518852 13.84813688 99.6796875 7.91796875 C 97.9296875 5.16796875 97.9296875 5.16796875 98.0546875 2.85546875 C 98.9296875 1.16796875 98.9296875 1.16796875 100.9296875 0.16796875 C 102.33318426 0.0687133 103.74120862 0.02968683 105.14819336 0.02270508 C 106.45481178 0.0131353 106.45481178 0.0131353 107.78782654 0.00337219 C 108.73053909 0.00225937 109.67325165 0.00114655 110.64453125 0 C 111.61121231 -0.0033284 112.57789337 -0.0066568 113.5738678 -0.01008606 C 115.62077355 -0.01515442 117.66768759 -0.01749441 119.71459961 -0.01733398 C 122.85088679 -0.01951989 125.986822 -0.037675 129.12304688 -0.05664062 C 131.10937379 -0.05957464 133.09570239 -0.06155938 135.08203125 -0.0625 C 136.02271957 -0.06968552 136.9634079 -0.07687103 137.93260193 -0.08427429 C 138.80683304 -0.08119766 139.68106415 -0.07812103 140.58178711 -0.07495117 C 141.73522865 -0.0770887 141.73522865 -0.0770887 142.91197205 -0.07926941 C 144.9296875 0.16796875 144.9296875 0.16796875 147.9296875 2.16796875 C 147.50193582 7.62180267 146.35407625 10.01719451 142.9296875 14.16796875 C 140.66994843 20.21944794 140.58589132 25.99413371 140.515625 32.40625 C 140.49639481 33.55170288 140.47716461 34.69715576 140.45735168 35.87731934 C 140.40705496 39.0708778 140.36610066 42.26439486 140.32940292 45.4581337 C 140.30461065 47.48675661 140.27512394 49.51525689 140.24404907 51.54379272 C 139.95857302 70.27358031 139.91418381 88.9985921 139.99720764 107.7302494 C 140.01167863 111.09613772 140.02383164 114.46202677 140.03527832 117.82792664 C 140.04315405 120.07107565 140.05108861 122.31422445 140.05908203 124.55737305 C 140.06300838 125.66672809 140.06693474 126.77608313 140.07098007 127.91905499 C 140.09705281 134.62092271 140.14343356 141.32231438 140.20356846 148.02395821 C 140.23764178 152.24530234 140.25558678 156.46661101 140.26962852 160.68806458 C 140.27991778 162.67560303 140.29735807 164.66311829 140.32221413 166.65052795 C 140.35567762 169.38292033 140.36474235 172.11435337 140.36791992 174.84692383 C 140.38386892 175.65209599 140.39981792 176.45726816 140.41625023 177.28683949 C 140.38659149 182.67685497 140.38659149 182.67685497 138.07290649 185.16377258 C 135.29486701 186.4654112 133.16380938 186.5562718 130.09765625 186.56640625 C 128.40479492 186.57220703 128.40479492 186.57220703 126.67773438 186.578125 C 124.91526367 186.56072266 124.91526367 186.56072266 123.1171875 186.54296875 C 121.37211914 186.56037109 121.37211914 186.56037109 119.59179688 186.578125 C 112.19720935 186.55287314 106.42823241 186.45350262 100.8125 181.1796875 C 94.62242922 172.99503836 88.9224212 164.47769328 83.859375 155.546875 C 82.25022698 152.72923727 80.57669944 150.00886645 78.8046875 147.29296875 C 75.79961993 142.61273586 72.97224071 137.85103113 70.1796875 133.04296875 C 65.88490331 125.66885882 61.32233861 118.502523 56.65625 111.359375 C 53.99441597 107.28149067 51.38625446 103.17206629 48.8046875 99.04296875 C 48.39927734 98.39505371 47.99386719 97.74713867 47.57617188 97.07958984 C 45.47068739 93.69746529 43.4029434 90.29641035 41.375 86.8671875 C 40.9639502 86.17318848 40.55290039 85.47918945 40.12939453 84.76416016 C 39.34669515 83.43736207 38.56878928 82.10772107 37.79638672 80.77490234 C 35.94335237 77.39760611 35.94335237 77.39760611 32.9296875 75.16796875 C 33.09300064 76.15015884 33.25631378 77.13234894 33.42457581 78.14430237 C 34.0116902 82.27874003 34.0490406 86.37747973 34.01147461 90.54663086 C 34.00840805 91.35410263 34.00534149 92.1615744 34.00218201 92.99351501 C 33.99506399 94.73569181 33.98569375 96.47786058 33.97428703 98.22001457 C 33.95679526 100.98258372 33.94656546 103.74509421 33.93836975 106.50770569 C 33.91400525 114.35862772 33.87838845 122.20947044 33.83374023 130.06030273 C 33.80687657 134.87294051 33.78988741 139.68553303 33.77887154 144.49823189 C 33.77268723 146.32538084 33.76271411 148.15252123 33.74879265 149.97962761 C 33.72945627 152.53978016 33.72266384 155.09969607 33.71850586 157.65991211 C 33.70974426 158.40561462 33.70098267 159.15131714 33.69195557 159.9196167 C 33.70215202 165.45243504 34.0680972 171.42226034 37.25390625 176.12109375 C 37.70378906 176.5490625 38.15367187 176.97703125 38.6171875 177.41796875 C 40.9296875 180.16796875 40.9296875 180.16796875 40.8671875 182.41796875 C 39.9296875 184.16796875 39.9296875 184.16796875 37.9296875 186.16796875 C 36.04568481 186.43539429 36.04568481 186.43539429 33.72705078 186.45849609 C 32.85919952 186.4712558 31.99134827 186.4840155 31.09719849 186.49716187 C 30.15762299 186.49938751 29.21804749 186.50161316 28.25 186.50390625 C 27.28569061 186.51056305 26.32138123 186.51721985 25.32785034 186.52407837 C 23.28515535 186.53421597 21.24242716 186.53889505 19.19970703 186.53857422 C 16.0739881 186.54294178 12.94968712 186.57923433 9.82421875 186.6171875 C 7.84115067 186.62305652 5.85807587 186.62702534 3.875 186.62890625 C 2.93947296 186.64327728 2.00394592 186.65764832 1.04006958 186.67245483 C -5.43292729 186.62689083 -5.43292729 186.62689083 -8.70361328 184.27197266 C -10.0703125 182.16796875 -10.0703125 182.16796875 -9.8828125 180.04296875 C -9.31583208 178.7345524 -8.70803033 177.44340441 -8.0703125 176.16796875 C -7.4103125 176.16796875 -6.7503125 176.16796875 -6.0703125 176.16796875 C -0.14266766 164.73608226 -0.91065761 152.41625376 -1.00097656 139.7878418 C -1.00815956 137.90451393 -1.00815956 137.90451393 -1.01548767 135.98313904 C -1.02999239 132.5867239 -1.04938622 129.19042078 -1.07205296 125.7940557 C -1.08603483 123.66486653 -1.09863204 121.53567342 -1.1108017 119.40647316 C -1.15362909 111.95900294 -1.20284371 104.51160264 -1.25732422 97.06420898 C -1.30770796 90.14997705 -1.34285512 83.23577615 -1.37125802 76.32142228 C -1.39652646 70.35408489 -1.43314668 64.38688414 -1.47834373 58.41966468 C -1.50501128 54.86879722 -1.52707695 51.31805151 -1.53736115 47.76709557 C -1.54921359 43.81158739 -1.58464219 39.85647575 -1.62207031 35.90112305 C -1.62220627 34.73987915 -1.62234222 33.57863525 -1.6224823 32.38220215 C -1.72932662 24.08439634 -2.77119452 16.69417703 -7.8828125 9.91796875 C -9.19140625 7.9609375 -9.19140625 7.9609375 -10.0703125 6.16796875 C -8.68448076 -0.34544044 -5.89738269 0.00944669 0 0 Z" stroke-linecap="round"/>
</g>
		<g transform="matrix(1 0 0 1 248 297.5566)">
<path style="stroke: none; stroke-width: 1; stroke-dasharray: none; stroke-linecap: butt; stroke-dashoffset: 0; stroke-linejoin: miter; stroke-miterlimit: 4; is-custom-font: none; font-file-url: none; fill: rgb(255,255,255); fill-rule: nonzero; opacity: 1;" transform=" translate(-28.8577, -93.8154)" d="M 0 0 C 1.04796249 -0.00630432 2.09592499 -0.01260864 3.17564392 -0.019104 C 4.87256126 -0.01303131 4.87256126 -0.01303131 6.60375977 -0.00683594 C 8.34774803 -0.00970612 8.34774803 -0.00970612 10.12696838 -0.01263428 C 12.58741472 -0.01399615 15.04786823 -0.01029956 17.50830078 -0.00195312 C 21.27661283 0.00873643 25.04444707 -0.00184366 28.81274414 -0.01464844 C 31.20141707 -0.01332665 33.5900897 -0.01076387 35.97875977 -0.00683594 C 37.10801376 -0.0108844 38.23726776 -0.01493286 39.40074158 -0.019104 C 40.45185623 -0.01279968 41.50297089 -0.00649536 42.5859375 0 C 43.50954575 0.00159119 44.43315399 0.00318237 45.38475037 0.00482178 C 48.02172823 0.27563818 49.63409812 0.83375036 51.85766602 2.25878906 C 52.98266602 4.36816406 52.98266602 4.36816406 53.85766602 7.00878906 C 54.3565332 8.50539063 54.3565332 8.50539063 54.86547852 10.03222656 C 56.85611933 16.50572781 58.68763003 23.01989517 60.48950195 29.54785156 C 63.26275641 39.56215793 66.20339953 49.48084972 69.54516602 59.32128906 C 73.0756248 69.72159507 76.34497358 80.19081008 79.54516602 90.69628906 C 79.77327972 91.44411652 80.00139343 92.19194397 80.23641968 92.96243286 C 82.68204692 100.98757121 85.08840039 109.02305516 87.44360352 117.07519531 C 90.41165979 127.21239887 93.61555389 137.2686084 96.89526367 147.30908203 C 97.50366933 149.17380988 98.10804155 151.03986283 98.70678711 152.90771484 C 101.37364078 161.19926547 103.84506156 168.73035795 109.85766602 175.25878906 C 110.81949432 176.42257607 111.77806492 177.5890666 112.73266602 178.75878906 C 113.43391602 179.58378906 114.13516602 180.40878906 114.85766602 181.25878906 C 114.35766602 183.13378906 114.35766602 183.13378906 112.85766602 185.25878906 C 106.60264544 187.29080237 100.76493498 187.5658707 94.22485352 187.55957031 C 93.22938507 187.56385544 92.23391663 187.56814056 91.20828247 187.57255554 C 89.11566933 187.57827004 87.02303633 187.57882049 84.93041992 187.57446289 C 81.73525225 187.57129163 78.54100151 187.59483753 75.34594727 187.62011719 C 73.30558384 187.6223894 71.26521795 187.62309404 69.22485352 187.62207031 C 68.27472382 187.63128006 67.32459412 187.64048981 66.34567261 187.64997864 C 61.14287233 187.61375657 57.28959652 187.31453569 52.85766602 184.25878906 C 52.52766602 183.26878906 52.19766602 182.27878906 51.85766602 181.25878906 C 53.03735352 179.46191406 53.03735352 179.46191406 54.73266602 177.50878906 C 57.72883573 173.6465936 58.9402086 171.29388661 58.85766602 166.25878906 C 56.94998606 153.37753679 56.94998606 153.37753679 50.85766602 142.25878906 C 49.26252709 142.13606057 47.6621167 142.08097863 46.0625 142.0534668 C 45.04151718 142.03352158 44.02053436 142.01357635 42.96861267 141.99302673 C 41.85821121 141.97631424 40.74780975 141.95960175 39.60375977 141.94238281 C 38.47317642 141.92160172 37.34259308 141.90082062 36.17774963 141.87940979 C 32.55028617 141.81379109 28.92274769 141.75497229 25.29516602 141.69628906 C 22.84268416 141.65311555 20.39021001 141.60950166 17.93774414 141.56542969 C 11.91113175 141.45809723 5.88444401 141.35635417 -0.14233398 141.25878906 C -0.34027054 142.17023682 -0.34027054 142.17023682 -0.54220581 143.10009766 C -0.71817291 143.9027002 -0.89414001 144.70530273 -1.07543945 145.53222656 C -1.24864716 146.3254834 -1.42185486 147.11874023 -1.60031128 147.93603516 C -2.33702135 151.09309147 -3.30062983 154.16533575 -4.26733398 157.25878906 C -6.70123807 165.16925796 -6.70123807 165.16925796 -6.14233398 173.25878906 C -4.70921195 175.24901205 -3.1456505 176.94156888 -1.43139648 178.69238281 C -0.14233398 180.25878906 -0.14233398 180.25878906 0.04516602 183.07128906 C -1.14233398 185.25878906 -1.14233398 185.25878906 -3.17260742 186.38110352 C -7.12278602 187.548556 -10.74857387 187.52609993 -14.84545898 187.48925781 C -15.68268494 187.48879959 -16.51991089 187.48834137 -17.38250732 187.48786926 C -19.15093404 187.48485516 -20.91935829 187.47699409 -22.68774414 187.46459961 C -25.36931982 187.44644487 -28.05054722 187.44408951 -30.73217773 187.44433594 C -32.45744109 187.43941583 -34.18270213 187.43358538 -35.90795898 187.42675781 C -36.69889954 187.42564499 -37.48984009 187.42453217 -38.30474854 187.42338562 C -42.22370666 187.39065962 -46.12497719 187.25030129 -50.03198242 186.93579102 C -50.74916443 186.87929886 -51.46634644 186.8228067 -52.20526123 186.76460266 C -54.62084817 186.13383816 -55.61640373 185.20876354 -57.14233398 183.25878906 C -56.95254217 179.7421616 -55.22771176 178.03044609 -52.83374023 175.59863281 C -48.99002674 171.35279569 -47.02690578 167.15924032 -45.07983398 161.82128906 C -44.74677246 160.94657959 -44.41371094 160.07187012 -44.07055664 159.1706543 C -43.07603044 156.53981053 -42.10719428 153.90063227 -41.14233398 151.25878906 C -40.5996417 149.81076875 -40.05669139 148.36284511 -39.51342773 146.91503906 C -36.44176328 138.5912137 -33.91325201 130.15988769 -31.53027344 121.61621094 C -29.57117425 114.63428137 -27.42879195 107.7231543 -25.20483398 100.82128906 C -24.86685791 99.77183105 -24.52888184 98.72237305 -24.18066406 97.64111328 C -22.8534027 93.53037351 -21.52092604 89.42135969 -20.18334961 85.31396484 C -16.84199288 75.04297051 -13.63113007 64.79090958 -10.99633789 54.31347656 C -9.95124013 50.19206199 -8.81018807 46.133227 -7.50170898 42.08691406 C -2.22698373 27.28794724 -2.22698373 27.28794724 -4.02124023 12.17285156 C -5.19759549 10.32367319 -6.59428013 8.80684292 -8.14233398 7.25878906 C -8.39233398 4.82128906 -8.39233398 4.82128906 -8.14233398 2.25878906 C -4.84004623 0.05726389 -3.83813871 0.00661802 0 0 Z M 25.85766602 51.25878906 C 22.40318783 57.1418701 21.10137542 63.55606166 19.48266602 70.13378906 C 17.52646159 77.91088182 15.54520477 85.63730241 13.04516602 93.25878906 C 11.14292976 99.14128202 9.38062452 105.07044676 8.85766602 111.25878906 C 9.9927441 112.62090727 9.9927441 112.62090727 13.00048828 112.37231445 C 14.39169299 112.37215539 15.78290362 112.36646413 17.17407227 112.35644531 C 18.27065407 112.35432289 18.27065407 112.35432289 19.38938904 112.35215759 C 21.73302234 112.34654314 24.07656141 112.33398828 26.42016602 112.32128906 C 28.0054511 112.31627592 29.59073767 112.31171269 31.17602539 112.30761719 C 35.06994212 112.29656903 38.96378807 112.27929478 42.85766602 112.25878906 C 44.18278632 109.60854845 43.60122263 108.61609853 42.82543945 105.78417969 C 42.57477722 104.85561157 42.32411499 103.92704346 42.06585693 102.97033691 C 41.78574768 101.96208862 41.50563843 100.95384033 41.21704102 99.91503906 C 40.9341925 98.87617554 40.65134399 97.83731201 40.35992432 96.76696777 C 39.44918796 93.42903931 38.52839583 90.09397312 37.60766602 86.75878906 C 37.0015695 84.54021047 36.39609319 82.32146234 35.79125977 80.10253906 C 34.16373188 74.1497315 32.53126255 68.19882599 30.85766602 62.25878906 C 30.59554321 61.30254639 30.33342041 60.34630371 30.06335449 59.36108398 C 29.80630737 58.45269775 29.54926025 57.54431152 29.28442383 56.60839844 C 29.05781067 55.79479858 28.83119751 54.98119873 28.59771729 54.14294434 C 28.02318188 52.06278996 28.02318188 52.06278996 25.85766602 51.25878906 Z" stroke-linecap="round"/>
</g>
</g>
</g>
</svg>