<?xml version="1.0" encoding="UTF-8"?>
<svg xmlns="http://www.w3.org/2000/svg" xmlns:xlink="http://www.w3.org/1999/xlink" version="1.1" width="16" height="16" viewBox="0 0 1000 1000" xml:space="preserve">
<desc>Created with Fabric.js 3.5.0</desc>
<defs>
</defs>
<rect x="0" y="0" width="100%" height="100%" fill="rgba(0,0,0,0.94)"/>
<g transform="matrix(0.9766 0 0 0.9766 500.0192 500.0192)" id="689317">
<g style="" vector-effect="non-scaling-stroke">
		<g transform="matrix(1 0 0 1 -4.1876 -148.1516)">
<path style="stroke: none; stroke-width: 1; stroke-dasharray: none; stroke-linecap: butt; stroke-dashoffset: 0; stroke-linejoin: miter; stroke-miterlimit: 4; is-custom-font: none; font-file-url: none; fill: rgb(255,255,255); fill-rule: nonzero; opacity: 1;" transform=" translate(-173.8125, -295.8485)" d="M 0 0 C 1.53921454 0.8914479 3.05481624 1.82466022 4.546875 2.79296875 C 5.3925 3.34146484 6.238125 3.88996094 7.109375 4.45507812 C 8.41648437 5.31262695 8.41648437 5.31262695 9.75 6.1875 C 10.6059375 6.73986328 11.461875 7.29222656 12.34375 7.86132812 C 19.91195603 12.79786251 26.93986874 18.29367152 33.9375 24 C 37.19142527 26.61619609 40.49342533 29.07787289 43.9375 31.4375 C 48.60502847 34.64916927 52.9551944 38.16248396 57.30859375 41.78515625 C 60.57948218 44.4768743 63.93618715 47.04271737 67.3203125 49.58984375 C 69 51 69 51 70 53 C 70.7425 53.268125 71.485 53.53625 72.25 53.8125 C 75.66898164 55.28887843 77.35969226 57.35969226 80 60 C 82.62707451 61.87532703 85.29246093 63.67430639 87.98828125 65.44921875 C 88.65214844 65.96097656 89.31601562 66.47273438 90 67 C 90 67.66 90 68.32 90 69 C 91.07314453 69.36738281 91.07314453 69.36738281 92.16796875 69.7421875 C 95.34583121 71.15359676 97.63646999 72.91281519 100.3125 75.125 C 101.19550781 75.84945312 102.07851563 76.57390625 102.98828125 77.3203125 C 103.65214844 77.87460938 104.31601562 78.42890625 105 79 C 108.40403042 75.69608813 111.52334553 72.26153653 114.58203125 68.63671875 C 116.29437341 66.66021361 118.1515727 64.8484273 120 63 C 120.99 61.515 120.99 61.515 122 60 C 122.66 60 123.32 60 124 60 C 124.3403125 59.195625 124.3403125 59.195625 124.6875 58.375 C 126.45570089 55.17539839 128.53670203 52.70962777 131 50 C 131.66 50 132.32 50 133 50 C 133.27078369 49.40703125 133.54156738 48.8140625 133.82055664 48.203125 C 134.98563092 46.02684052 136.17522906 44.52983443 137.87109375 42.75 C 138.44045654 42.14712158 139.00981934 41.54424316 139.59643555 40.9230957 C 140.50776245 39.97116333 140.50776245 39.97116333 141.4375 39 C 142.70353475 37.66054342 143.96915427 36.32069426 145.234375 34.98046875 C 145.86666016 34.31321777 146.49894531 33.6459668 147.15039062 32.95849609 C 149.85236851 30.09745246 152.5248153 27.21008707 155.1875 24.3125 C 156.47720703 22.91451172 156.47720703 22.91451172 157.79296875 21.48828125 C 159.97697404 19.1184218 159.97697404 19.1184218 161.546875 16.80859375 C 163.80308807 14.00045759 166.07932708 13.02888078 169.5 12.05859375 C 173.82439569 11.95724073 175.97316317 14.27824138 179.0703125 17.0859375 C 180.05186418 18.05224984 181.02788222 19.02419763 182 20 C 182.60295898 20.59973633 183.20591797 21.19947266 183.82714844 21.81738281 C 186.57395982 24.5560555 189.3127826 27.30200534 192.03198242 30.06811523 C 195.82892416 33.91352284 199.64640196 37.5101156 203.875 40.875 C 218.09279864 52.24059588 218.09279864 52.24059588 219.75 57.28125 C 219.75 61.29063108 218.48478619 63.42624556 215.9140625 66.46875 C 214.18700671 68.19049177 212.42182865 69.87464303 210.625 71.5234375 C 208.23978934 73.77377018 206.32397964 75.99929132 204.375 78.625 C 202.11597321 81.64585315 199.77176059 84.31241061 197.0625 86.9375 C 194.23099066 89.68795469 191.73342942 92.50729048 189.3125 95.625 C 185.89582251 100.015938 182.20172335 104.03402946 178.375 108.0625 C 173.65621141 113.04426766 169.45680835 118.03345408 166 124 C 166.75023437 124.54527344 167.50046875 125.09054688 168.2734375 125.65234375 C 173.40353893 129.43207843 178.33806211 133.20427142 183 137.5625 C 187.55102122 141.78738941 192.4645281 145.09060631 197.7265625 148.37109375 C 198.47679687 148.90863281 199.22703125 149.44617188 200 150 C 200 150.66 200 151.32 200 152 C 200.804375 152.33837891 200.804375 152.33837891 201.625 152.68359375 C 204.76030045 154.42141653 207.31752929 156.71293735 210 159.0625 C 214.22631896 162.70686533 218.50074739 166.19137408 223 169.5 C 227.98540862 173.17311191 232.70730649 177.06871814 237.3972168 181.10522461 C 241.04003081 184.22962319 244.76679252 187.14104965 248.70703125 189.87890625 C 249.13371094 190.24886719 249.56039063 190.61882812 250 191 C 250 191.66 250 192.32 250 193 C 252.33214148 194.20628008 254.49642139 195.1654738 257 196 C 258.68358582 197.64957399 260.3478463 199.31894565 262 201 C 263.93088769 202.57590555 265.89146396 204.11589751 267.875 205.625 C 268.42728271 206.04740967 268.97956543 206.46981934 269.54858398 206.9050293 C 272.68116551 209.28861961 275.84660433 211.6206535 279.04296875 213.91796875 C 279.71279785 214.40120605 280.38262695 214.88444336 281.07275391 215.38232422 C 282.36852113 216.31368672 283.66878485 217.23883517 284.97412109 218.15673828 C 288.56849274 220.73743704 291.6897286 223.14570682 294 227 C 294.62230719 231.16574289 294.62077621 233.1243093 292.1640625 236.58984375 C 291.32617188 237.36457031 290.48828125 238.13929688 289.625 238.9375 C 288.71105469 239.78957031 287.79710937 240.64164063 286.85546875 241.51953125 C 283.46681175 244.46316626 280.01407615 247.29163142 276.46484375 250.0390625 C 273.10221051 252.71424774 269.96018357 255.60840097 266.8125 258.53125 C 265 260 265 260 263 260 C 263 260.66 263 261.32 263 262 C 261.3046875 263.5234375 261.3046875 263.5234375 258.875 265.375 C 254.49857871 268.78576114 250.25747465 272.3090105 246.0625 275.9375 C 240.95955616 280.34298863 235.78805342 284.64570603 230.546875 288.88671875 C 227.18993372 291.67215622 223.97483988 294.60019374 220.77734375 297.56640625 C 219 299 219 299 217 299 C 217 299.66 217 300.32 217 301 C 215.53309441 302.3327188 213.99677499 303.58913869 212.4375 304.8125 C 207.68470312 308.61596245 203.03215984 312.50686945 198.4375 316.5 C 197.80247559 317.05171875 197.16745117 317.6034375 196.51318359 318.171875 C 191.28993377 322.72389082 186.12288495 327.33516123 181 332 C 184.13276787 340.49667774 189.66030455 347.84338294 195.32421875 354.83203125 C 197.35969172 357.46533544 199.15476564 360.23040438 201 363 C 202.44531361 364.94723161 203.90394379 366.88464212 205.375 368.8125 C 209.74901248 374.61359649 213.77550828 380.56490054 217.72265625 386.66015625 C 222.99940573 394.71072066 228.69997188 402.38494385 234.51904297 410.04858398 C 236.08324768 412.10969315 237.64534959 414.17230728 239.203125 416.23828125 C 239.6765332 416.86516846 240.14994141 417.49205566 240.63769531 418.13793945 C 242.02632747 420.0359856 243.33457556 421.97162703 244.625 423.9375 C 247.69981284 428.60696312 250.9049722 433.18012334 254.125 437.75 C 254.6401416 438.483396 255.1552832 439.21679199 255.68603516 439.97241211 C 257.81457545 442.98618002 259.95448756 445.9431684 262.26171875 448.82421875 C 264.0295863 451.03703274 265.29795578 453.34964984 266.65234375 455.828125 C 269.18305854 459.90661029 272.22731979 463.64060302 275.171875 467.42578125 C 277 470 277 470 277 472 C 277.66 472 278.32 472 279 472 C 280.41015625 473.73046875 280.41015625 473.73046875 282.0625 476.1875 C 282.68125 477.09886719 283.3 478.01023437 283.9375 478.94921875 C 284.618125 479.95597656 285.29875 480.96273438 286 482 C 287.13403717 483.61639673 288.26810929 485.23277035 289.40429688 486.84765625 C 301 503.39059865 301 503.39059865 301 507 C 301.66 507 302.32 507 303 507 C 304.4453125 509.0546875 304.4453125 509.0546875 306.125 511.875 C 308.51642111 515.74870692 310.98364705 519.35911482 313.875 522.875 C 320.31810198 530.7345816 326.10761021 539.08886146 331 548 C 336.53939778 557.70485044 343.75421153 566.3558308 350.9375 574.875 C 358 583.4625 358 583.4625 358 589.3125 C 356.49605741 591.85040312 354.78013107 592.1150539 352 593 C 348.85324097 593.24723816 348.85324097 593.24723816 345.27294922 593.24291992 C 344.61689194 593.24481827 343.96083466 593.24671661 343.28489685 593.24867249 C 341.12470379 593.25236407 338.96485052 593.24169183 336.8046875 593.23046875 C 335.29118896 593.22927496 333.77768967 593.22882421 332.26419067 593.2290802 C 329.09176999 593.22751764 325.9194625 593.21925089 322.74707031 593.20581055 C 318.70929318 593.18890846 314.67164129 593.18499402 310.63383293 593.18575573 C 307.50571529 593.18548167 304.37762424 593.17996148 301.24951553 593.17275429 C 299.76258673 593.169602 298.27565495 593.16760839 296.78872299 593.16686058 C 273.53766396 593.14238292 273.53766396 593.14238292 269.09765625 589.84375 C 264.55415574 583.68421858 264.55415574 583.68421858 262.4375 580.5 C 260.34920954 577.39100798 258.26231083 574.32555961 255.91015625 571.40625 C 254.0201359 569.02536547 252.55616867 566.60875964 251 564 C 249.14158445 561.28590048 247.22501849 558.61365104 245.3125 555.9375 C 240.95208877 549.80953308 236.70983992 543.6336883 232.62109375 537.3203125 C 231.14868359 535.05876527 231.14868359 535.05876527 229.58203125 533.6171875 C 227.06496947 531.04419101 225.21677931 527.99866693 223.25 525 C 222.80462891 524.32791504 222.35925781 523.65583008 221.90039062 522.96337891 C 219.37281548 519.13645507 216.9153112 515.27400236 214.5 511.375 C 211.59612295 506.76814833 208.34984144 502.49100253 204.99462891 498.21118164 C 201.46825841 493.68216301 198.14029879 489.03275567 194.875 484.3125 C 194.14651855 483.26896362 194.14651855 483.26896362 193.40332031 482.2043457 C 190 477.24291586 190 477.24291586 190 475 C 189.34 475 188.68 475 188 475 C 186.64648438 473.31030273 186.64648438 473.31030273 185.09375 470.93359375 C 184.51955322 470.06259033 183.94535645 469.19158691 183.35375977 468.29418945 C 182.74201904 467.35148193 182.13027832 466.40877441 181.5 465.4375 C 180.872146 464.48254639 180.24429199 463.52759277 179.59741211 462.54370117 C 178.32388948 460.60669258 177.05296279 458.66797469 175.78466797 456.72753906 C 165.52184369 440.87382473 165.52184369 440.87382473 154.3828125 425.640625 C 153.92712891 425.05812988 153.47144531 424.47563477 153.00195312 423.87548828 C 152.10349964 422.7333054 151.19880851 421.5959937 150.28710938 420.46435547 C 148.126854 417.72684876 146.45809575 415.51206743 146 412 C 145.34 412 144.68 412 144 412 C 142.69067383 410.41455078 142.69067383 410.41455078 141.20703125 408.1953125 C 140.66216064 407.38835937 140.11729004 406.58140625 139.5559082 405.75 C 138.9805835 404.88375 138.40525879 404.0175 137.8125 403.125 C 136.63578833 401.37735386 135.45870818 399.62995577 134.28125 397.8828125 C 133.71535156 397.03879883 133.14945313 396.19478516 132.56640625 395.32519531 C 130.18237226 391.78630196 127.7289798 388.29931313 125.26953125 384.8125 C 124.1569229 383.22403761 123.07576235 381.61364353 122 380 C 118.32043709 381.56232021 115.83484207 383.83584082 112.9375 386.5625 C 108.41865533 390.75927373 103.75476366 394.70403581 98.95703125 398.58203125 C 91.46693612 404.70669292 84.15199387 411.0537717 76.9375 417.5 C 68.53125 425 68.53125 425 66 425 C 64.48823586 430.34461326 63.78679957 434.75161691 64.0234375 440.3515625 C 64.07560744 441.82625019 64.12768558 443.30094114 64.1796875 444.77563477 C 64.22754395 445.95284592 64.22754395 445.95284592 64.27636719 447.15383911 C 65.01294346 465.60812853 65.06035831 484.05503792 65.00567627 502.52051544 C 64.52469499 541.67736055 64.52469499 541.67736055 67.59765625 580.6640625 C 67.94142433 583.51433373 68.24258503 586.14059345 68 589 C 63.91340443 593.08659557 58.62192313 593.12921013 53.11328125 593.23046875 C 50.8463107 593.22762877 48.57933194 593.21272933 46.3125 593.1875 C 45.11512207 593.18177979 43.91774414 593.17605957 42.68408203 593.17016602 C 34.76055028 593.10615564 26.87803876 592.78972132 18.97192383 592.28369141 C 12.72221687 591.92471394 6.60576386 592.16268602 0.37646484 592.76928711 C -3.32313836 593.09248665 -5.91835501 593.22815018 -9 591 C -11.07491061 586.85017878 -10.18494797 581.4329257 -10.1875 576.875 C -10.19974609 575.77800781 -10.21199219 574.68101562 -10.22460938 573.55078125 C -10.2365803 566.66351161 -9.70797749 559.9785175 -8.78352356 553.16365051 C -7.75712865 545.4840407 -7.27843889 537.79674638 -6.875 530.0625 C -6.83230988 529.27672577 -6.78961975 528.49095154 -6.74563599 527.68136597 C -5.84832512 510.72923858 -5.84739641 493.78608588 -5.98583984 476.81469727 C -6.00039741 474.82568875 -6.01424936 472.83667493 -6.02734375 470.84765625 C -6.03374878 469.89339249 -6.04015381 468.93912872 -6.04675293 467.95594788 C -6.06405873 461.46850805 -5.70043097 455.10636234 -5.17254734 448.64036715 C -5.00761459 445.16065104 -5.15815204 441.90080764 -5.46531677 438.43430138 C -6.02032087 431.31445002 -6.13473948 424.25629109 -6.11352539 417.11758423 C -6.1132445 415.77949792 -6.11341006 414.44141146 -6.11397648 413.10332525 C -6.11426882 409.46840749 -6.10838356 405.83352324 -6.10140657 402.19861317 C -6.09497954 398.26092536 -6.09445917 394.32323607 -6.0932312 390.38554382 C -6.09035483 383.56995745 -6.08393146 376.75438204 -6.07516479 369.93880081 C -6.06254164 360.05000394 -6.05651748 350.16121106 -6.05223143 340.27240746 C -6.04517376 324.17899763 -6.03438436 308.08559284 -6.02050781 291.9921875 C -6.01926609 290.54975739 -6.01926609 290.54975739 -6.01799929 289.07818727 C -6.01126383 281.28755863 -6.00434585 273.49693015 -5.99739647 265.70630169 C -5.99134828 258.92236526 -5.98536548 252.13842877 -5.97949219 245.35449219 C -5.97866406 244.39951566 -5.97783593 243.44453914 -5.97698271 242.46062393 C -5.96321954 226.44549194 -5.95350073 210.43035986 -5.94658184 194.41522348 C -5.94213922 184.57353108 -5.9341807 174.73185411 -5.92143703 164.89016889 C -5.91290618 158.12055897 -5.9080968 151.35095253 -5.90601182 144.58133759 C -5.90468835 140.69685596 -5.90182567 136.81239428 -5.89425278 132.92791939 C -5.8602574 114.87637812 -6.13113523 96.86871369 -6.78086853 78.82805443 C -7.03145353 71.66071101 -7.05853419 64.50723422 -7.01269531 57.33691406 C -6.97381192 50.16476928 -7.14205876 42.99528784 -7.31738281 35.82568359 C -7.3562131 34.17408007 -7.39095865 32.52237608 -7.421875 30.87060547 C -7.58124798 22.37237311 -7.76213356 14.25664433 -10 6 C -10.125 2.4375 -10.125 2.4375 -10 0 C -5.80359871 -2.15814924 -4.20120188 -1.97988127 0 0 Z M 65 130 C 64.70602715 140.44690638 64.42443344 150.89409924 64.14949036 161.34152222 C 64.05558822 164.9090535 63.9601084 168.47653486 63.86283875 172.04397583 C 63.12072032 199.4540467 62.83954345 226.84708723 62.86962891 254.2668457 C 62.87535893 259.53652458 62.87191677 264.80615324 62.86617661 270.07583046 C 62.84358636 294.73477619 63.094479 319.35662912 64 344 C 68.03693874 342.48735131 70.54691861 340.85465903 73.6875 337.875 C 77.03298185 334.77237535 80.4096012 331.81577733 84 329 C 88.35413557 325.57256621 92.44255179 321.92138283 96.52734375 318.1796875 C 99.67890042 315.40153802 102.99392615 312.8902582 106.3828125 310.41015625 C 106.91648437 309.94480469 107.45015625 309.47945312 108 309 C 108 308.34 108 307.68 108 307 C 108.59039062 306.72929687 109.18078125 306.45859375 109.7890625 306.1796875 C 111.98260331 305.00928233 113.5410619 303.79297085 115.375 302.125 C 119.21872351 298.69156158 123.09352418 295.29922336 127 291.9375 C 127.60521484 291.41575195 128.21042969 290.89400391 128.83398438 290.35644531 C 132.09619768 287.56355151 135.39432771 284.8957004 138.875 282.375 C 140.421875 281.199375 140.421875 281.199375 142 280 C 142 279.34 142 278.68 142 278 C 142.56203125 277.75636719 143.1240625 277.51273438 143.703125 277.26171875 C 146.44019785 275.75819064 148.45795941 273.93300252 150.75 271.8125 C 153.74271743 269.06808664 156.73687703 266.33867394 159.8125 263.6875 C 162.27423927 261.54967379 164.68776563 259.36974012 167.0703125 257.14453125 C 168.19268873 256.09633317 169.31508496 255.04815652 170.4375 254 C 170.99373047 253.48026611 171.54996094 252.96053223 172.12304688 252.42504883 C 176.05928633 248.78125859 180.13498234 245.44656571 184.48828125 242.3046875 C 184.98714844 241.87414062 185.48601562 241.44359375 186 241 C 186 240.34 186 239.68 186 239 C 186.639375 238.773125 187.27875 238.54625 187.9375 238.3125 C 190.18183989 237.15547786 190.18183989 237.15547786 190.96875 234.7578125 C 191.30163533 231.76927748 191.30163533 231.76927748 188.75390625 229.31640625 C 187.70563094 228.38074585 186.64064166 227.46358382 185.5625 226.5625 C 185.00481934 226.07515381 184.44713867 225.58780762 183.87255859 225.08569336 C 180.44839339 222.12432007 176.91991833 219.35096835 173.2421875 216.7109375 C 170.12869662 214.33513784 167.20393671 211.75733349 164.25 209.1875 C 158.87013228 204.51800341 153.37075464 200.14806997 147.62109375 195.9375 C 145.02596445 194.0191928 142.50885121 192.02945289 140 190 C 139.23300781 189.38640625 138.46601563 188.7728125 137.67578125 188.140625 C 125 178 125 178 122.48828125 175.98828125 C 120.86373491 174.69017436 119.23625301 173.39573036 117.60546875 172.10546875 C 112.91274148 168.38312774 108.30497719 164.57684428 103.75 160.6875 C 98.57617928 156.27050455 93.28163239 152.03722602 87.90625 147.86865234 C 83.94040012 144.78073011 80.13890368 141.56589538 76.453125 138.14453125 C 75.04642771 136.79374874 75.04642771 136.79374874 73 137 C 73 136.34 73 135.68 73 135 C 69.52001493 131.36366461 69.52001493 131.36366461 65 130 Z" stroke-linecap="round"/>
</g>
</g>
</g>
</svg>
